<svg width="156" height="50" viewBox="0 0 156 50" fill="none" xmlns="http://www.w3.org/2000/svg">
<path d="M47.48 41C46.952 41 46.544 40.864 46.256 40.592C45.984 40.304 45.848 39.896 45.848 39.368V25.712C45.848 25.184 45.984 24.784 46.256 24.512C46.544 24.224 46.952 24.08 47.48 24.08H53.24C54.424 24.08 55.432 24.256 56.264 24.608C57.096 24.96 57.728 25.464 58.16 26.12C58.608 26.776 58.832 27.56 58.832 28.472C58.832 29.496 58.536 30.36 57.944 31.064C57.352 31.768 56.544 32.24 55.52 32.48V32.12C56.704 32.296 57.624 32.744 58.28 33.464C58.936 34.184 59.264 35.12 59.264 36.272C59.264 37.776 58.752 38.944 57.728 39.776C56.72 40.592 55.312 41 53.504 41H47.48ZM48.8 38.672H53.12C54.208 38.672 55.008 38.464 55.52 38.048C56.032 37.616 56.288 36.976 56.288 36.128C56.288 35.264 56.032 34.624 55.52 34.208C55.008 33.792 54.208 33.584 53.12 33.584H48.8V38.672ZM48.8 31.256H52.712C53.768 31.256 54.552 31.056 55.064 30.656C55.592 30.24 55.856 29.632 55.856 28.832C55.856 28.032 55.592 27.432 55.064 27.032C54.552 26.616 53.768 26.408 52.712 26.408H48.8V31.256ZM65.0594 45.512C64.7074 45.512 64.4194 45.416 64.1954 45.224C63.9714 45.048 63.8354 44.808 63.7874 44.504C63.7554 44.2 63.8114 43.88 63.9554 43.544L65.5874 39.92V41.168L61.2194 31.064C61.0754 30.712 61.0274 30.384 61.0754 30.08C61.1234 29.776 61.2674 29.536 61.5074 29.36C61.7634 29.168 62.1074 29.072 62.5394 29.072C62.9074 29.072 63.2034 29.16 63.4274 29.336C63.6514 29.496 63.8514 29.808 64.0274 30.272L67.2674 38.36H66.5474L69.8594 30.248C70.0354 29.8 70.2434 29.496 70.4834 29.336C70.7234 29.16 71.0434 29.072 71.4434 29.072C71.7954 29.072 72.0754 29.168 72.2834 29.36C72.4914 29.536 72.6194 29.776 72.6674 30.08C72.7154 30.368 72.6594 30.688 72.4994 31.04L66.6674 44.36C66.4594 44.808 66.2354 45.112 65.9954 45.272C65.7554 45.432 65.4434 45.512 65.0594 45.512ZM78.3459 41.24C77.4979 41.24 76.7379 41.08 76.0659 40.76C75.4099 40.424 74.8899 39.976 74.5059 39.416C74.1379 38.856 73.9539 38.224 73.9539 37.52C73.9539 36.656 74.1779 35.976 74.6259 35.48C75.0739 34.968 75.8019 34.6 76.8099 34.376C77.8179 34.152 79.1699 34.04 80.8659 34.04H82.0659V35.768H80.8899C79.8979 35.768 79.1059 35.816 78.5139 35.912C77.9219 36.008 77.4979 36.176 77.2419 36.416C77.0019 36.64 76.8819 36.96 76.8819 37.376C76.8819 37.904 77.0659 38.336 77.4339 38.672C77.8019 39.008 78.3139 39.176 78.9699 39.176C79.4979 39.176 79.9619 39.056 80.3619 38.816C80.7779 38.56 81.1059 38.216 81.3459 37.784C81.5859 37.352 81.7059 36.856 81.7059 36.296V33.536C81.7059 32.736 81.5299 32.16 81.1779 31.808C80.8259 31.456 80.2339 31.28 79.4019 31.28C78.9379 31.28 78.4339 31.336 77.8899 31.448C77.3619 31.56 76.8019 31.752 76.2099 32.024C75.9059 32.168 75.6339 32.208 75.3939 32.144C75.1699 32.08 74.9939 31.952 74.8659 31.76C74.7379 31.552 74.6739 31.328 74.6739 31.088C74.6739 30.848 74.7379 30.616 74.8659 30.392C74.9939 30.152 75.2099 29.976 75.5139 29.864C76.2499 29.56 76.9539 29.344 77.6259 29.216C78.3139 29.088 78.9379 29.024 79.4979 29.024C80.6499 29.024 81.5939 29.2 82.3299 29.552C83.0819 29.904 83.6419 30.44 84.0099 31.16C84.3779 31.864 84.5619 32.776 84.5619 33.896V39.656C84.5619 40.152 84.4419 40.536 84.2019 40.808C83.9619 41.064 83.6179 41.192 83.1699 41.192C82.7219 41.192 82.3699 41.064 82.1139 40.808C81.8739 40.536 81.7539 40.152 81.7539 39.656V38.504H81.9459C81.8339 39.064 81.6099 39.552 81.2739 39.968C80.9539 40.368 80.5459 40.68 80.0499 40.904C79.5539 41.128 78.9859 41.24 78.3459 41.24ZM89.0949 41.192C88.6149 41.192 88.2469 41.064 87.9909 40.808C87.7349 40.536 87.6069 40.152 87.6069 39.656V25.4C87.6069 24.904 87.7349 24.528 87.9909 24.272C88.2469 24.016 88.6149 23.888 89.0949 23.888C89.5749 23.888 89.9429 24.016 90.1989 24.272C90.4709 24.528 90.6069 24.904 90.6069 25.4V31.616H90.2709C90.6229 30.768 91.1669 30.128 91.9029 29.696C92.6549 29.248 93.5029 29.024 94.4469 29.024C95.3909 29.024 96.1669 29.2 96.7749 29.552C97.3829 29.904 97.8389 30.44 98.1429 31.16C98.4469 31.864 98.5989 32.76 98.5989 33.848V39.656C98.5989 40.152 98.4709 40.536 98.2149 40.808C97.9589 41.064 97.5909 41.192 97.1109 41.192C96.6309 41.192 96.2549 41.064 95.9829 40.808C95.7269 40.536 95.5989 40.152 95.5989 39.656V33.992C95.5989 33.08 95.4229 32.416 95.0709 32C94.7349 31.584 94.2069 31.376 93.4869 31.376C92.6069 31.376 91.9029 31.656 91.3749 32.216C90.8629 32.76 90.6069 33.488 90.6069 34.4V39.656C90.6069 40.68 90.1029 41.192 89.0949 41.192ZM107.43 41.24C106.102 41.24 104.958 40.992 103.998 40.496C103.038 40 102.294 39.296 101.766 38.384C101.254 37.472 100.998 36.392 100.998 35.144C100.998 33.928 101.246 32.864 101.742 31.952C102.254 31.04 102.95 30.328 103.83 29.816C104.726 29.288 105.742 29.024 106.878 29.024C107.71 29.024 108.454 29.16 109.11 29.432C109.782 29.704 110.35 30.096 110.814 30.608C111.294 31.12 111.654 31.744 111.894 32.48C112.15 33.2 112.278 34.016 112.278 34.928C112.278 35.216 112.174 35.44 111.966 35.6C111.774 35.744 111.494 35.816 111.126 35.816H103.422V34.088H110.166L109.782 34.448C109.782 33.712 109.67 33.096 109.446 32.6C109.238 32.104 108.926 31.728 108.51 31.472C108.11 31.2 107.606 31.064 106.998 31.064C106.326 31.064 105.75 31.224 105.27 31.544C104.806 31.848 104.446 32.288 104.19 32.864C103.95 33.424 103.83 34.096 103.83 34.88V35.048C103.83 36.36 104.134 37.344 104.742 38C105.366 38.64 106.278 38.96 107.478 38.96C107.894 38.96 108.358 38.912 108.87 38.816C109.398 38.704 109.894 38.52 110.358 38.264C110.694 38.072 110.99 37.992 111.246 38.024C111.502 38.04 111.702 38.128 111.846 38.288C112.006 38.448 112.102 38.648 112.134 38.888C112.166 39.112 112.118 39.344 111.99 39.584C111.878 39.824 111.678 40.032 111.39 40.208C110.83 40.56 110.182 40.824 109.446 41C108.726 41.16 108.054 41.24 107.43 41.24ZM116.094 41.12C115.55 41.12 115.11 40.952 114.774 40.616C114.454 40.28 114.294 39.848 114.294 39.32C114.294 38.808 114.454 38.392 114.774 38.072C115.11 37.736 115.55 37.568 116.094 37.568C116.654 37.568 117.086 37.736 117.39 38.072C117.71 38.392 117.87 38.808 117.87 39.32C117.87 39.848 117.71 40.28 117.39 40.616C117.086 40.952 116.654 41.12 116.094 41.12ZM122.095 41.192C121.615 41.192 121.247 41.064 120.991 40.808C120.735 40.536 120.607 40.152 120.607 39.656V30.584C120.607 30.088 120.735 29.712 120.991 29.456C121.247 29.2 121.607 29.072 122.071 29.072C122.535 29.072 122.895 29.2 123.151 29.456C123.407 29.712 123.535 30.088 123.535 30.584V32.216L123.271 31.616C123.623 30.768 124.167 30.128 124.903 29.696C125.655 29.248 126.503 29.024 127.447 29.024C128.391 29.024 129.167 29.2 129.775 29.552C130.383 29.904 130.839 30.44 131.143 31.16C131.447 31.864 131.599 32.76 131.599 33.848V39.656C131.599 40.152 131.471 40.536 131.215 40.808C130.959 41.064 130.591 41.192 130.111 41.192C129.631 41.192 129.255 41.064 128.983 40.808C128.727 40.536 128.599 40.152 128.599 39.656V33.992C128.599 33.08 128.423 32.416 128.071 32C127.735 31.584 127.207 31.376 126.487 31.376C125.607 31.376 124.903 31.656 124.375 32.216C123.863 32.76 123.607 33.488 123.607 34.4V39.656C123.607 40.68 123.103 41.192 122.095 41.192ZM140.43 41.24C139.102 41.24 137.958 40.992 136.998 40.496C136.038 40 135.294 39.296 134.766 38.384C134.254 37.472 133.998 36.392 133.998 35.144C133.998 33.928 134.246 32.864 134.742 31.952C135.254 31.04 135.95 30.328 136.83 29.816C137.726 29.288 138.742 29.024 139.878 29.024C140.71 29.024 141.454 29.16 142.11 29.432C142.782 29.704 143.35 30.096 143.814 30.608C144.294 31.12 144.654 31.744 144.894 32.48C145.15 33.2 145.278 34.016 145.278 34.928C145.278 35.216 145.174 35.44 144.966 35.6C144.774 35.744 144.494 35.816 144.126 35.816H136.422V34.088H143.166L142.782 34.448C142.782 33.712 142.67 33.096 142.446 32.6C142.238 32.104 141.926 31.728 141.51 31.472C141.11 31.2 140.606 31.064 139.998 31.064C139.326 31.064 138.75 31.224 138.27 31.544C137.806 31.848 137.446 32.288 137.19 32.864C136.95 33.424 136.83 34.096 136.83 34.88V35.048C136.83 36.36 137.134 37.344 137.742 38C138.366 38.64 139.278 38.96 140.478 38.96C140.894 38.96 141.358 38.912 141.87 38.816C142.398 38.704 142.894 38.52 143.358 38.264C143.694 38.072 143.99 37.992 144.246 38.024C144.502 38.04 144.702 38.128 144.846 38.288C145.006 38.448 145.102 38.648 145.134 38.888C145.166 39.112 145.118 39.344 144.99 39.584C144.878 39.824 144.678 40.032 144.39 40.208C143.83 40.56 143.182 40.824 142.446 41C141.726 41.16 141.054 41.24 140.43 41.24ZM152.983 41.24C151.943 41.24 151.071 41.064 150.367 40.712C149.679 40.36 149.167 39.848 148.831 39.176C148.495 38.488 148.327 37.64 148.327 36.632V31.52H147.079C146.695 31.52 146.399 31.424 146.191 31.232C145.983 31.024 145.879 30.744 145.879 30.392C145.879 30.024 145.983 29.744 146.191 29.552C146.399 29.36 146.695 29.264 147.079 29.264H148.327V27.08C148.327 26.584 148.455 26.208 148.711 25.952C148.983 25.696 149.359 25.568 149.839 25.568C150.319 25.568 150.687 25.696 150.943 25.952C151.199 26.208 151.327 26.584 151.327 27.08V29.264H153.871C154.255 29.264 154.551 29.36 154.759 29.552C154.967 29.744 155.071 30.024 155.071 30.392C155.071 30.744 154.967 31.024 154.759 31.232C154.551 31.424 154.255 31.52 153.871 31.52H151.327V36.464C151.327 37.232 151.495 37.808 151.831 38.192C152.167 38.576 152.711 38.768 153.463 38.768C153.735 38.768 153.975 38.744 154.183 38.696C154.391 38.648 154.575 38.616 154.735 38.6C154.927 38.584 155.087 38.648 155.215 38.792C155.343 38.92 155.407 39.192 155.407 39.608C155.407 39.928 155.351 40.216 155.239 40.472C155.143 40.712 154.959 40.88 154.687 40.976C154.479 41.04 154.207 41.096 153.871 41.144C153.535 41.208 153.239 41.24 152.983 41.24Z" fill="#4B5563"/>
<path d="M47.272 18C46.9413 18 46.6853 17.9093 46.504 17.728C46.3227 17.536 46.232 17.2747 46.232 16.944V7.712C46.232 7.37067 46.3173 7.11467 46.488 6.944C46.6693 6.76267 46.9253 6.672 47.256 6.672C47.5867 6.672 47.8373 6.76267 48.008 6.944C48.1893 7.11467 48.28 7.37067 48.28 7.712V16.256H52.92C53.208 16.256 53.4267 16.3307 53.576 16.48C53.736 16.6293 53.816 16.8427 53.816 17.12C53.816 17.3973 53.736 17.616 53.576 17.776C53.4267 17.9253 53.208 18 52.92 18H47.272ZM57.6004 18.16C57.035 18.16 56.5284 18.0533 56.0804 17.84C55.643 17.616 55.2964 17.3173 55.0404 16.944C54.795 16.5707 54.6724 16.1493 54.6724 15.68C54.6724 15.104 54.8217 14.6507 55.1204 14.32C55.419 13.9787 55.9044 13.7333 56.5764 13.584C57.2484 13.4347 58.1497 13.36 59.2804 13.36H60.0804V14.512H59.2964C58.635 14.512 58.107 14.544 57.7124 14.608C57.3177 14.672 57.035 14.784 56.8644 14.944C56.7044 15.0933 56.6244 15.3067 56.6244 15.584C56.6244 15.936 56.747 16.224 56.9924 16.448C57.2377 16.672 57.579 16.784 58.0164 16.784C58.3684 16.784 58.6777 16.704 58.9444 16.544C59.2217 16.3733 59.4404 16.144 59.6004 15.856C59.7604 15.568 59.8404 15.2373 59.8404 14.864V13.024C59.8404 12.4907 59.723 12.1067 59.4884 11.872C59.2537 11.6373 58.859 11.52 58.3044 11.52C57.995 11.52 57.659 11.5573 57.2964 11.632C56.9444 11.7067 56.571 11.8347 56.1764 12.016C55.9737 12.112 55.7924 12.1387 55.6324 12.096C55.483 12.0533 55.3657 11.968 55.2804 11.84C55.195 11.7013 55.1524 11.552 55.1524 11.392C55.1524 11.232 55.195 11.0773 55.2804 10.928C55.3657 10.768 55.5097 10.6507 55.7124 10.576C56.203 10.3733 56.6724 10.2293 57.1204 10.144C57.579 10.0587 57.995 10.016 58.3684 10.016C59.1364 10.016 59.7657 10.1333 60.2564 10.368C60.7577 10.6027 61.131 10.96 61.3764 11.44C61.6217 11.9093 61.7444 12.5173 61.7444 13.264V17.104C61.7444 17.4347 61.6644 17.6907 61.5044 17.872C61.3444 18.0427 61.115 18.128 60.8164 18.128C60.5177 18.128 60.283 18.0427 60.1124 17.872C59.9524 17.6907 59.8724 17.4347 59.8724 17.104V16.336H60.0004C59.9257 16.7093 59.7764 17.0347 59.5524 17.312C59.339 17.5787 59.067 17.7867 58.7364 17.936C58.4057 18.0853 58.027 18.16 57.6004 18.16ZM64.7664 18.128C64.4464 18.128 64.201 18.0427 64.0304 17.872C63.8597 17.6907 63.7744 17.4347 63.7744 17.104V7.6C63.7744 7.26933 63.8597 7.01867 64.0304 6.848C64.201 6.67733 64.4464 6.592 64.7664 6.592C65.0864 6.592 65.3317 6.67733 65.5024 6.848C65.6837 7.01867 65.7744 7.26933 65.7744 7.6V13.504H65.8064L68.4464 10.72C68.6597 10.5067 68.8464 10.3413 69.0064 10.224C69.1664 10.1067 69.385 10.048 69.6624 10.048C69.9397 10.048 70.1477 10.1227 70.2864 10.272C70.4357 10.4107 70.5104 10.5813 70.5104 10.784C70.5104 10.9867 70.4144 11.1893 70.2224 11.392L67.4384 14.336V13.504L70.4944 16.8C70.6864 17.0027 70.7717 17.2107 70.7504 17.424C70.7397 17.6267 70.6544 17.7973 70.4944 17.936C70.3344 18.064 70.1317 18.128 69.8864 18.128C69.5877 18.128 69.3477 18.0693 69.1664 17.952C68.9957 17.8347 68.8037 17.6587 68.5904 17.424L65.8064 14.512H65.7744V17.104C65.7744 17.7867 65.4384 18.128 64.7664 18.128ZM76.8645 18.16C76.2032 18.16 75.6218 17.9947 75.1205 17.664C74.6298 17.3333 74.3045 16.8907 74.1445 16.336L74.3205 15.936V17.104C74.3205 17.4347 74.2352 17.6907 74.0645 17.872C73.8938 18.0427 73.6538 18.128 73.3445 18.128C73.0245 18.128 72.7792 18.0427 72.6085 17.872C72.4378 17.6907 72.3525 17.4347 72.3525 17.104V7.6C72.3525 7.26933 72.4378 7.01867 72.6085 6.848C72.7792 6.67733 73.0245 6.592 73.3445 6.592C73.6645 6.592 73.9098 6.67733 74.0805 6.848C74.2618 7.01867 74.3525 7.26933 74.3525 7.6V11.76H74.1605C74.3312 11.2373 74.6618 10.816 75.1525 10.496C75.6432 10.176 76.2138 10.016 76.8645 10.016C77.5578 10.016 78.1605 10.1813 78.6725 10.512C79.1845 10.8427 79.5845 11.312 79.8725 11.92C80.1605 12.5173 80.3045 13.2373 80.3045 14.08C80.3045 14.912 80.1605 15.6373 79.8725 16.256C79.5845 16.864 79.1792 17.3333 78.6565 17.664C78.1445 17.9947 77.5472 18.16 76.8645 18.16ZM76.3045 16.64C76.6992 16.64 77.0458 16.544 77.3445 16.352C77.6432 16.16 77.8725 15.8773 78.0325 15.504C78.2032 15.12 78.2885 14.6453 78.2885 14.08C78.2885 13.2267 78.1072 12.592 77.7445 12.176C77.3818 11.7493 76.9018 11.536 76.3045 11.536C75.9098 11.536 75.5632 11.632 75.2645 11.824C74.9658 12.0053 74.7312 12.288 74.5605 12.672C74.4005 13.0453 74.3205 13.5147 74.3205 14.08C74.3205 14.9227 74.5018 15.5627 74.8645 16C75.2272 16.4267 75.7072 16.64 76.3045 16.64ZM84.5223 18.16C83.9569 18.16 83.4503 18.0533 83.0023 17.84C82.5649 17.616 82.2183 17.3173 81.9622 16.944C81.7169 16.5707 81.5943 16.1493 81.5943 15.68C81.5943 15.104 81.7436 14.6507 82.0423 14.32C82.3409 13.9787 82.8263 13.7333 83.4983 13.584C84.1703 13.4347 85.0716 13.36 86.2023 13.36H87.0023V14.512H86.2183C85.5569 14.512 85.0289 14.544 84.6343 14.608C84.2396 14.672 83.9569 14.784 83.7863 14.944C83.6263 15.0933 83.5463 15.3067 83.5463 15.584C83.5463 15.936 83.6689 16.224 83.9143 16.448C84.1596 16.672 84.5009 16.784 84.9383 16.784C85.2903 16.784 85.5996 16.704 85.8663 16.544C86.1436 16.3733 86.3623 16.144 86.5223 15.856C86.6823 15.568 86.7623 15.2373 86.7623 14.864V13.024C86.7623 12.4907 86.6449 12.1067 86.4103 11.872C86.1756 11.6373 85.7809 11.52 85.2263 11.52C84.9169 11.52 84.5809 11.5573 84.2183 11.632C83.8663 11.7067 83.4929 11.8347 83.0983 12.016C82.8956 12.112 82.7143 12.1387 82.5543 12.096C82.4049 12.0533 82.2876 11.968 82.2023 11.84C82.1169 11.7013 82.0743 11.552 82.0743 11.392C82.0743 11.232 82.1169 11.0773 82.2023 10.928C82.2876 10.768 82.4316 10.6507 82.6343 10.576C83.1249 10.3733 83.5943 10.2293 84.0423 10.144C84.5009 10.0587 84.9169 10.016 85.2903 10.016C86.0583 10.016 86.6876 10.1333 87.1783 10.368C87.6796 10.6027 88.0529 10.96 88.2983 11.44C88.5436 11.9093 88.6663 12.5173 88.6663 13.264V17.104C88.6663 17.4347 88.5863 17.6907 88.4263 17.872C88.2663 18.0427 88.0369 18.128 87.7383 18.128C87.4396 18.128 87.2049 18.0427 87.0343 17.872C86.8743 17.6907 86.7943 17.4347 86.7943 17.104V16.336H86.9223C86.8476 16.7093 86.6983 17.0347 86.4743 17.312C86.2609 17.5787 85.9889 17.7867 85.6583 17.936C85.3276 18.0853 84.9489 18.16 84.5223 18.16ZM92.6021 21.008C92.3675 21.008 92.1755 20.944 92.0261 20.816C91.8768 20.6987 91.7861 20.5387 91.7541 20.336C91.7328 20.1333 91.7701 19.92 91.8661 19.696L92.9541 17.28V18.112L90.0421 11.376C89.9461 11.1413 89.9141 10.9227 89.9461 10.72C89.9781 10.5173 90.0741 10.3573 90.2341 10.24C90.4048 10.112 90.6341 10.048 90.9221 10.048C91.1675 10.048 91.3648 10.1067 91.5141 10.224C91.6635 10.3307 91.7968 10.5387 91.9141 10.848L94.0741 16.24H93.5941L95.8021 10.832C95.9195 10.5333 96.0581 10.3307 96.2181 10.224C96.3781 10.1067 96.5915 10.048 96.8581 10.048C97.0928 10.048 97.2795 10.112 97.4181 10.24C97.5568 10.3573 97.6421 10.5173 97.6741 10.72C97.7061 10.912 97.6688 11.1253 97.5621 11.36L93.6741 20.24C93.5355 20.5387 93.3861 20.7413 93.2261 20.848C93.0661 20.9547 92.8581 21.008 92.6021 21.008Z" fill="#10B981"/>
<path d="M21 22.75C23.8995 22.75 26.25 20.3995 26.25 17.5C26.25 14.6005 23.8995 12.25 21 12.25C18.1005 12.25 15.75 14.6005 15.75 17.5C15.75 20.3995 18.1005 22.75 21 22.75Z" stroke="#10B981" stroke-width="3.16667" stroke-linecap="round" stroke-linejoin="round"/>
<path d="M21 3.5C17.287 3.5 13.726 4.975 11.1005 7.60051C8.475 10.226 7 13.787 7 17.5C7 20.811 7.7035 22.9775 9.625 25.375L21 38.5L32.375 25.375C34.2965 22.9775 35 20.811 35 17.5C35 13.787 33.525 10.226 30.8995 7.60051C28.274 4.975 24.713 3.5 21 3.5Z" stroke="#10B981" stroke-width="3.16667" stroke-linecap="round" stroke-linejoin="round"/>
</svg>
